# xmcd CD database file
#
# Track frame offsets:
#	150
#	17590
#	36867
#	51715
#	66022
#	83525
#	98590
#	116875
#	130607
#	150630
#	171440
#	187370
#	200857
#	215370
#	233972
#
# Disc length: 3316 seconds
#
# Revision: 2
# Processed by: cddbd v1.5.2PL0 Copyright (c) Steve Scherf et al.
# Submitted via: CDex 1.70beta2
#
DISCID=d80cf20f
DTITLE=Chet Atkins - The Essential Chet Atkins - The Columbia Years
DYEAR=2004
DGENRE=Country
TTITLE0=Bourree
TTITLE1=Cosmic Square Dance
TTITLE2=Wobegon (The Way It Used To Be)
TTITLE3=Maybelle
TTITLE4=Dixie McGuire  [w/ Tommy Emmanuel]
TTITLE5=Jam Man
TTITLE6=Poor Boy Blues  [w/ Mark Knopfler]
TTITLE7=Road To Gundaghi - Waltzing Matilda  [w/ Tommy Emmanuel]
TTITLE8=Sneakin' Around  [w/ Jerry Reed]
TTITLE9=Dream
TTITLE10=After You've Gone
TTITLE11=I'll See You In My Dreams  [w/ Mark Knopfler]
TTITLE12=Young Thing
TTITLE13=Imagine
TTITLE14=So Soft, Your Goodbye  [w/ Mark Knopfler]
EXTD=YEAR: 2004
EXTT0=
EXTT1=
EXTT2=
EXTT3=
EXTT4=
EXTT5=
EXTT6=
EXTT7=
EXTT8=
EXTT9=
EXTT10=
EXTT11=
EXTT12=
EXTT13=
EXTT14=
PLAYORDER=
